<?xml version="1.0" encoding="UTF-8"?>
<svg xmlns="http://www.w3.org/2000/svg" viewBox="0 0 48 48" width="48" height="48">
<path d="M28.67 5C28.39 5.92 28.11 6.83 27.83 7.75C26.37 7.74 25.36 6.02 23.84 6.07C22.58 6.11 19.06 9.42 17.25 10.17C16.89 11.58 15.02 13.14 15.17 13.33C14.56 12.8 13.94 12.27 13.33 11.74C13.95 10.22 14.57 8.69 15.2 7.17C18.99 6.52 20.33 3.29 23.83 2.05C24.44 2.42 25.06 2.79 25.67 3.17C26.67 3.78 27.67 4.39 28.67 5ZM41.85 16.63C41.18 16.75 40.51 16.86 39.83 16.98C39.88 22.37 39.92 27.77 39.97 33.17C40.42 33.19 40.88 33.2 41.33 33.22C43.19 34.26 43.01 35.6 43.17 37.59C48.4 40.41 47.15 46.73 40.5 45.98C40.27 45.54 40.04 45.1 39.81 44.66C39.96 44.27 40.1 43.89 40.25 43.5C41.79 42.81 42.89 43.44 43.08 41.5C34.72 41.32 26.36 41.15 18 40.97C17.52 40.48 17.03 39.99 16.55 39.5C16.92 39.01 17.29 38.53 17.67 38.04C25.06 37.97 32.46 37.9 39.86 37.83C39.85 37.28 39.84 36.72 39.83 36.16C29.29 36.19 18.75 36.22 8.21 36.25C8.19 36.75 8.18 37.24 8.17 37.74C9.06 37.89 9.94 38.04 10.83 38.2C11.12 38.63 11.4 39.07 11.69 39.5C11.38 39.94 11.07 40.39 10.76 40.83C8.9 40.97 7.03 41.11 5.17 41.26C4.74 43.78 7.51 42.98 9.33 43.01C18.22 43.06 27.11 43.11 36 43.17C36.22 43.8 36.44 44.44 36.67 45.08C36.38 45.32 36.1 45.55 35.81 45.79C25.1 45.78 14.38 45.78 3.67 45.77C-0.02 43.69 1.97 39.12 4.83 37.59C4.94 36.51 5.06 35.43 5.17 34.35C6.06 33.76 6.94 33.17 7.83 32.59C8.01 30.34 7.01 26.63 9 25.15C9.61 25.37 10.22 25.59 10.83 25.8C10.99 28.15 11.15 30.49 11.31 32.83C11.78 32.82 12.25 32.8 12.72 32.79C14.76 29.95 10.57 21.85 15.33 21.17C15.65 25.04 15.98 28.91 16.3 32.78C17.43 32.78 18.56 32.78 19.68 32.77C19.81 27.68 19.94 22.59 20.07 17.5C16.49 17.39 12.91 17.28 9.33 17.17C0.94 16.4 7.21 10.46 10.9 10.17C11.22 10.69 11.54 11.21 11.86 11.74C11.43 12.21 11 12.69 10.57 13.17C11.42 14.73 14.73 13.9 16.34 13.96C22.66 14.21 29.15 13.92 35.5 13.57C33.91 12.21 32.33 10.86 30.74 9.5C31.17 9.1 31.6 8.71 32.04 8.31C32.75 8.28 33.46 8.24 34.17 8.21C36.59 10.41 42.07 11.89 42.94 15.17C42.58 15.65 42.21 16.14 41.85 16.63ZM31.96 17.06C28.96 17.06 25.97 17.06 22.98 17.06C22.98 22.36 22.98 27.67 22.98 32.97C23.57 33.04 24.48 33.39 24.94 32.78C25.91 31.48 24.7 23.78 25.18 21.5C25.62 21 26.06 20.5 26.5 20C27 20.5 27.5 21 28 21.5C28 25.33 28 29.17 28 33C29.32 33 30.64 33 31.96 33C31.96 27.69 31.96 22.38 31.96 17.06ZM35.83 17.26C34.96 18.12 34.47 31.84 35.5 33.06C35.92 33.01 36.55 33.1 36.84 32.7C37.68 31.58 36.86 17.64 35.83 17.26Z" fill="#2f9bfe" fill-rule="evenodd" stroke="#2f9bfe" stroke-width="0.25" stroke-linejoin="round"/>
<path d="M28.67 5C28.89 5.17 29.1 5.33 29.31 5.5C29.27 6 29.22 6.5 29.17 7C29.94 7.56 30.72 8.11 31.5 8.67C31.68 8.55 31.86 8.43 32.04 8.31C31.6 8.71 31.17 9.1 30.74 9.5C32.33 10.86 33.91 12.21 35.5 13.57C29.15 13.92 22.66 14.21 16.34 13.96C14.73 13.9 11.42 14.73 10.57 13.17C11 12.69 11.43 12.21 11.86 11.74C12.07 11.88 12.29 12.03 12.5 12.18C12.78 12.04 13.06 11.89 13.33 11.74C13.94 12.27 14.56 12.8 15.17 13.33C15.02 13.14 16.89 11.58 17.25 10.17C19.06 9.42 22.58 6.11 23.84 6.07C25.36 6.02 26.37 7.74 27.83 7.75C28.11 6.83 28.39 5.92 28.67 5ZM19.68 32.77C19.11 27.5 20.44 26.52 16.5 22.58C16.43 25.98 16.37 29.38 16.3 32.78C15.98 28.91 15.65 25.04 15.33 21.17C10.57 21.85 14.76 29.95 12.72 32.79C12.6 31.26 12.1 21.68 12.75 20.89C13.14 20.42 13.86 20.53 14.42 20.5C12.84 18.92 11.95 17.6 9.67 17.39C9.56 17.31 9.44 17.24 9.33 17.17C12.91 17.28 16.49 17.39 20.07 17.5C19.94 22.59 19.81 27.68 19.68 32.77ZM31.96 17.06C31.96 22.38 31.96 27.69 31.96 33C30.64 33 29.32 33 28 33C28 29.17 28 25.33 28 21.5C27.5 21 27 20.5 26.5 20C26.06 20.5 25.62 21 25.18 21.5C24.7 23.78 25.91 31.48 24.94 32.78C24.48 33.39 23.57 33.04 22.98 32.97C22.98 27.67 22.98 22.36 22.98 17.06C25.97 17.06 28.96 17.06 31.96 17.06ZM35.83 17.26C36.86 17.64 37.68 31.58 36.84 32.7C36.55 33.1 35.92 33.01 35.5 33.06C34.47 31.84 34.96 18.12 35.83 17.26ZM17.67 38.04C22.25 37.86 26.83 37.68 31.42 37.5C29.78 35.86 27.06 36.45 24.83 36.43C19.31 36.37 13.71 36.61 8.21 36.25C18.75 36.22 29.29 36.19 39.83 36.16C39.84 36.72 39.85 37.28 39.86 37.83C32.46 37.9 25.06 37.97 17.67 38.04ZM39.81 44.66C39.59 44.8 39.38 44.95 39.17 45.1C38.94 44.61 38.72 44.11 38.5 43.62C38 43.58 37.5 43.54 37 43.5C37.14 43.94 37.29 44.39 37.43 44.83C37.18 44.92 36.92 45 36.67 45.08C36.44 44.44 36.22 43.8 36 43.17C27.11 43.11 18.22 43.06 9.33 43.01C18.44 42.95 27.56 42.89 36.67 42.83C33.7 38.87 21.71 43.52 18 40.97C26.36 41.15 34.72 41.32 43.08 41.5C42.89 43.44 41.79 42.81 40.25 43.5C40.1 43.89 39.96 44.27 39.81 44.66Z" fill="#a8d4fe" fill-rule="evenodd" stroke="#a8d4fe" stroke-width="0.25" stroke-linejoin="round"/>
<path d="M9.67 17.39C11.95 17.6 12.84 18.92 14.42 20.5C13.86 20.53 13.14 20.42 12.75 20.89C12.1 21.68 12.6 31.26 12.72 32.79C12.25 32.8 11.78 32.82 11.31 32.83C11.15 30.49 10.99 28.15 10.83 25.8C10.22 25.59 9.61 25.37 9 25.15C9.11 25.04 9.22 24.94 9.33 24.83C9.44 22.35 9.56 19.87 9.67 17.39ZM19.68 32.77C18.56 32.78 17.43 32.78 16.3 32.78C16.37 29.38 16.43 25.98 16.5 22.58C20.44 26.52 19.11 27.5 19.68 32.77ZM8.21 36.25C13.71 36.61 19.31 36.37 24.83 36.43C27.06 36.45 29.78 35.86 31.42 37.5C26.83 37.68 22.25 37.86 17.67 38.04C17.29 38.53 16.92 39.01 16.55 39.5C17.03 39.99 17.52 40.48 18 40.97C21.71 43.52 33.7 38.87 36.67 42.83C27.56 42.89 18.44 42.95 9.33 43.01C7.51 42.98 4.74 43.78 5.17 41.26C7.03 41.11 8.9 40.97 10.76 40.83C11.07 40.39 11.38 39.94 11.69 39.5C11.4 39.07 11.12 38.63 10.83 38.2C9.94 38.04 9.06 37.89 8.17 37.74C8.18 37.24 8.19 36.75 8.21 36.25Z" fill="#feffff" fill-rule="evenodd" stroke="#feffff" stroke-width="0.25" stroke-linejoin="round"/>
<path d="M41.85 16.63C41.29 16.87 40.73 17.1 40.17 17.33C40.19 22.39 40.21 27.44 40.24 32.5C40.6 32.74 40.97 32.98 41.33 33.22C40.88 33.2 40.42 33.19 39.97 33.17C39.92 27.77 39.88 22.37 39.83 16.98C40.51 16.86 41.18 16.75 41.85 16.63ZM3.67 45.77C14.38 45.78 25.1 45.78 35.81 45.79C25.1 45.78 14.38 45.78 3.67 45.77Z" fill="#6d9cc7" fill-rule="evenodd" stroke="#6d9cc7" stroke-width="0.25" stroke-linejoin="round"/>
</svg>